<mxfile host="app.diagrams.net" modified="2022-01-28T16:45:31.828Z" agent="5.0 (X11)" etag="zDy6M8eGVHzvGMtwRBxn" version="16.4.5" type="github">
  <diagram id="8HYWzNmesQWkR99IQmmd" name="Page-1">
    <mxGraphModel dx="1364" dy="758" grid="1" gridSize="10" guides="1" tooltips="1" connect="1" arrows="1" fold="1" page="1" pageScale="1" pageWidth="827" pageHeight="1169" math="0" shadow="0">
      <root>
        <mxCell id="0" />
        <mxCell id="1" parent="0" />
        <mxCell id="igRjqCVc-Ml_pMoNFqKZ-26" value="" style="rounded=0;whiteSpace=wrap;html=1;fontFamily=Helvetica;fontSize=14;" vertex="1" parent="1">
          <mxGeometry width="1040" height="510" as="geometry" />
        </mxCell>
        <mxCell id="igRjqCVc-Ml_pMoNFqKZ-2" value="&lt;div style=&quot;font-size: 14px;&quot;&gt;Hosting application&lt;br style=&quot;font-size: 14px;&quot;&gt;&lt;/div&gt;" style="rounded=0;whiteSpace=wrap;html=1;align=left;verticalAlign=top;fontSize=14;fillColor=#f5f5f5;fontColor=#333333;strokeColor=#666666;" vertex="1" parent="1">
          <mxGeometry x="40" y="40" width="420" height="390" as="geometry" />
        </mxCell>
        <mxCell id="igRjqCVc-Ml_pMoNFqKZ-4" value="&lt;div align=&quot;left&quot;&gt;Outlet at position_1&lt;br&gt;&lt;/div&gt;" style="rounded=0;whiteSpace=wrap;html=1;fontSize=14;align=left;verticalAlign=top;fillColor=#fff2cc;strokeColor=#d6b656;" vertex="1" parent="1">
          <mxGeometry x="50" y="250" width="300" height="170" as="geometry" />
        </mxCell>
        <mxCell id="igRjqCVc-Ml_pMoNFqKZ-6" value="&lt;div&gt;associate&lt;/div&gt;settings" style="html=1;shadow=0;dashed=0;align=center;verticalAlign=middle;shape=mxgraph.arrows2.arrow;dy=0.6;dx=40;direction=south;notch=0;fontSize=11;horizontal=0;fontFamily=Courier New;" vertex="1" parent="1">
          <mxGeometry x="81.25" y="171" width="90" height="80" as="geometry" />
        </mxCell>
        <mxCell id="igRjqCVc-Ml_pMoNFqKZ-7" value="settings:&lt;br&gt;&lt;div&gt;{&lt;/div&gt;&lt;div&gt;&amp;nbsp; key_1: value_1&lt;br&gt;&lt;/div&gt;&lt;div&gt;}&lt;/div&gt;" style="rounded=0;whiteSpace=wrap;html=1;fontSize=14;verticalAlign=top;align=left;fillColor=#d5e8d4;strokeColor=#82b366;fontFamily=Courier New;" vertex="1" parent="1">
          <mxGeometry x="52.5" y="90" width="147.5" height="81" as="geometry" />
        </mxCell>
        <mxCell id="igRjqCVc-Ml_pMoNFqKZ-9" value="Extension application" style="rounded=0;whiteSpace=wrap;html=1;fontFamily=Helvetica;fontSize=14;align=left;verticalAlign=top;fillColor=#f5f5f5;fontColor=#333333;strokeColor=#666666;" vertex="1" parent="1">
          <mxGeometry x="580" y="170" width="400" height="260" as="geometry" />
        </mxCell>
        <mxCell id="igRjqCVc-Ml_pMoNFqKZ-12" value="Loaded to position_1 outlet" style="html=1;shadow=0;dashed=0;align=center;verticalAlign=middle;shape=mxgraph.arrows2.arrow;dy=0.6;dx=40;flipH=1;notch=0;fontFamily=Helvetica;fontSize=14;" vertex="1" parent="1">
          <mxGeometry x="339" y="257" width="240" height="50" as="geometry" />
        </mxCell>
        <mxCell id="igRjqCVc-Ml_pMoNFqKZ-17" value="&lt;div&gt;{&lt;/div&gt;&lt;div&gt;&amp;nbsp; ...&lt;/div&gt;&lt;div&gt;&amp;nbsp; outlet: {&lt;/div&gt;&lt;div&gt;&amp;nbsp;&amp;nbsp;&amp;nbsp; settings: {&lt;br&gt;&lt;/div&gt;&lt;div&gt;&amp;nbsp; &amp;nbsp; &amp;nbsp; key_1: value_1&lt;br&gt;&lt;/div&gt;&lt;div&gt;&amp;nbsp;&amp;nbsp;&amp;nbsp; }&lt;/div&gt;&lt;div&gt;&amp;nbsp; }&lt;/div&gt;&lt;div&gt;}&lt;br&gt;&lt;/div&gt;" style="rounded=0;whiteSpace=wrap;html=1;fontSize=14;verticalAlign=top;align=left;fillColor=#d5e8d4;strokeColor=#82b366;fontFamily=Courier New;" vertex="1" parent="1">
          <mxGeometry x="670" y="271" width="210" height="141" as="geometry" />
        </mxCell>
        <mxCell id="igRjqCVc-Ml_pMoNFqKZ-22" value="" style="group" vertex="1" connectable="0" parent="1">
          <mxGeometry x="369" y="334" width="200" height="20" as="geometry" />
        </mxCell>
        <mxCell id="igRjqCVc-Ml_pMoNFqKZ-20" value="" style="endArrow=classic;html=1;rounded=0;fontFamily=Helvetica;fontSize=14;exitX=-0.005;exitY=0.623;exitDx=0;exitDy=0;exitPerimeter=0;" edge="1" parent="igRjqCVc-Ml_pMoNFqKZ-22" source="igRjqCVc-Ml_pMoNFqKZ-9" target="igRjqCVc-Ml_pMoNFqKZ-4">
          <mxGeometry width="50" height="50" relative="1" as="geometry">
            <mxPoint x="201" y="-4" as="sourcePoint" />
            <mxPoint x="21" y="-4" as="targetPoint" />
          </mxGeometry>
        </mxCell>
        <mxCell id="igRjqCVc-Ml_pMoNFqKZ-21" value="REQUIRE_CONTEXT request" style="text;html=1;align=center;verticalAlign=middle;resizable=0;points=[];autosize=1;strokeColor=none;fillColor=none;fontSize=14;fontFamily=Helvetica;" vertex="1" parent="igRjqCVc-Ml_pMoNFqKZ-22">
          <mxGeometry width="200" height="20" as="geometry" />
        </mxCell>
        <mxCell id="igRjqCVc-Ml_pMoNFqKZ-25" value="" style="group" vertex="1" connectable="0" parent="1">
          <mxGeometry x="365" y="390" width="210" height="20" as="geometry" />
        </mxCell>
        <mxCell id="igRjqCVc-Ml_pMoNFqKZ-23" value="" style="endArrow=classic;html=1;rounded=0;fontFamily=Helvetica;fontSize=14;exitX=0.997;exitY=0.829;exitDx=0;exitDy=0;exitPerimeter=0;entryX=0;entryY=0.84;entryDx=0;entryDy=0;entryPerimeter=0;" edge="1" parent="igRjqCVc-Ml_pMoNFqKZ-25" source="igRjqCVc-Ml_pMoNFqKZ-4" target="igRjqCVc-Ml_pMoNFqKZ-17">
          <mxGeometry width="50" height="50" relative="1" as="geometry">
            <mxPoint x="-15" y="30" as="sourcePoint" />
            <mxPoint x="35" y="-20" as="targetPoint" />
          </mxGeometry>
        </mxCell>
        <mxCell id="igRjqCVc-Ml_pMoNFqKZ-24" value="REQUIRE_CONTEXT response" style="text;html=1;align=center;verticalAlign=middle;resizable=0;points=[];autosize=1;strokeColor=none;fillColor=none;fontSize=14;fontFamily=Helvetica;" vertex="1" parent="igRjqCVc-Ml_pMoNFqKZ-25">
          <mxGeometry width="210" height="20" as="geometry" />
        </mxCell>
      </root>
    </mxGraphModel>
  </diagram>
</mxfile>
